<?xml version="1.0" encoding="utf-8"?>
<!-- Generator: Adobe Illustrator 16.0.0, SVG Export Plug-In . SVG Version: 6.00 Build 0)  -->
<!DOCTYPE svg PUBLIC "-//W3C//DTD SVG 1.1//EN" "http://www.w3.org/Graphics/SVG/1.1/DTD/svg11.dtd">
<svg version="1.1" id="图层_1" xmlns="http://www.w3.org/2000/svg" xmlns:xlink="http://www.w3.org/1999/xlink" x="0px" y="0px"
	 width="612px" height="792px" viewBox="0 0 612 792" enable-background="new 0 0 612 792" xml:space="preserve">
<path stroke="#000000" stroke-miterlimit="10" d="M389,239c6.333,0.333,12.667,0.667,19,1c10.599,12.803,20.285,24.85,25,44
	c0.333,9.333,0.667,18.667,1,28c4.637,12.177,13.365,24.365,9,44c-3.048,13.71-14.745,25.983-16,36
	c36.458,12.447,50.179,77.27,24,111c-43.794,56.427-177.097,65.461-239,19c-10.663-8.003-14.483-19.811-23-30
	c-8.994,2.178-19.738,2.092-25,8c0.667,0,1.333,0,2,0c9.634,11.265,31.259,12.145,33,31c-1.333,1-2.667,2-4,3
	c-21.23-7.022-48.792-24.493-50-51c10.733-18.52,29.238-9.188,48-20c3.333-4.333,6.667-8.667,10-13c8.666-5.333,17.334-10.667,26-16
	c1.333-2.667,2.667-5.333,4-8c-9.148-11.36-20.685-19.358-26-35c-1.333-7.333-2.667-14.667-4-22c-12.34-20.878-32.367-43.463-23-78
	c31.899-10.081,34.903-11.472,72-8c15.272-17.353,44.76-22.675,73-27c9.999,0.667,20.001,1.333,30,2c4.333-4,8.667-8,13-12
	C375,243.667,382,241.333,389,239z"/>
<path stroke="#000000" stroke-miterlimit="10" d="M167,389c38.862-1.722,48.191,55.386,19,65
	C148.041,466.502,139.955,407.087,167,389z"/>
<path fill="#FFFFFF" stroke="#000000" stroke-miterlimit="10" d="M163,398c-1.333,0.333-2.667,0.667-4,1
	c0.395,10.692-3.753,36.99,2,43c0.333,0,0.667,0,1,0c0.333-0.667,0.667-1.333,1-2c0.667-5,1.333-10,2-15c1,0.667,2,1.333,3,2
	c-0.583,5.967-0.313,7.823,4,11c0-0.667,0-1.333,0-2c5.84-2.083,2.905-7.236,6-13c4.09,5.868,3.284,13.645,10,19
	c2.667-1.333,5.333-2.667,8-4c-2.667-1.333-5.333-2.667-8-4c-1-11.666-2-23.334-3-35c-1.333,1.333-2.667,2.667-4,4
	c-4.814,4.368-6.917,19.591-8,27c-0.333,0-0.667,0-1,0C171.351,419.705,169.117,403.446,163,398z"/>
<path fill="#FFFFFF" stroke="#000000" stroke-miterlimit="10" d="M163,419c3.449,2.576,3.201,1.639,1,5
	C163.667,422.333,163.333,420.667,163,419z"/>
</svg>
